{
    "accessors" : [
        {
            "bufferView" : 0,
            "componentType" : 5123,
            "count" : 24576,
            "max" : [
                13254
            ],
            "min" : [
                0
            ],
            "type" : "SCALAR"
        },
        {
            "bufferView" : 1,
            "componentType" : 5126,
            "count" : 13255,
            "max" : [
                4.971549987792969,
                2.6681196689605713,
                4.971549987792969
            ],
            "min" : [
                -4.971549987792969,
                0.0,
                -4.971549987792969
            ],
            "type" : "VEC3"
        },
        {
            "bufferView" : 2,
            "componentType" : 5126,
            "count" : 13255,
            "max" : [
                0.9366264343261719,
                1.0,
                0.9369895458221436
            ],
            "min" : [
                -0.9369863271713257,
                0.32119274139404297,
                -0.9322579503059387
            ],
            "type" : "VEC3"
        }
    ],
    "asset" : {
        "generator" : "Khronos Blender glTF 2.0 exporter",
        "version" : "2.0"
    },
    "bufferViews" : [
        {
            "buffer" : 0,
            "byteLength" : 49152,
            "byteOffset" : 0,
            "target" : 34963
        },
        {
            "buffer" : 0,
            "byteLength" : 159060,
            "byteOffset" : 49152,
            "target" : 34962
        },
        {
            "buffer" : 0,
            "byteLength" : 159060,
            "byteOffset" : 208212,
            "target" : 34962
        }
    ],
    "buffers" : [
        {
            "byteLength" : 367272,
            "uri" : "data:application/octet-stream;base64,"
        }
    ],
    "materials" : [
        {
            "name" : "Material.007",
            "pbrMetallicRoughness" : {
                "baseColorFactor" : [
                    0.1769308116574706,
                    0.640000066757203,
                    0.12983643010014934,
                    1.0
                ],
                "metallicFactor" : 0.0
            }
        }
    ],
    "meshes" : [
        {
            "name" : "Cube",
            "primitives" : [
                {
                    "attributes" : {
                        "NORMAL" : 2,
                        "POSITION" : 1
                    },
                    "indices" : 0,
                    "material" : 0
                }
            ]
        }
    ],
    "nodes" : [
        {
            "mesh" : 0,
            "name" : "Cube",
            "translation" : [
                -0.6948622465133667,
                0.3149843215942383,
                0.5088136196136475
            ]
        }
    ],
    "scene" : 0,
    "scenes" : [
        {
            "name" : "Scene",
            "nodes" : [
                0
            ]
        }
    ]
}
