{
    "accessors" : [
        {
            "bufferView" : 0,
            "componentType" : 5123,
            "count" : 14790,
            "max" : [
                9859
            ],
            "min" : [
                0
            ],
            "type" : "SCALAR"
        },
        {
            "bufferView" : 1,
            "componentType" : 5126,
            "count" : 9860,
            "max" : [
                4.814752101898193,
                2.632453441619873,
                4.9708251953125
            ],
            "min" : [
                -4.8134446144104,
                -0.12498094886541367,
                -4.357630729675293
            ],
            "type" : "VEC3"
        },
        {
            "bufferView" : 2,
            "componentType" : 5126,
            "count" : 9860,
            "max" : [
                0.9517632722854614,
                0.9983561038970947,
                0.9483203887939453
            ],
            "min" : [
                -0.9578220844268799,
                0.17010219395160675,
                -0.9657469987869263
            ],
            "type" : "VEC3"
        },
        {
            "bufferView" : 3,
            "componentType" : 5123,
            "count" : 9786,
            "max" : [
                6523
            ],
            "min" : [
                0
            ],
            "type" : "SCALAR"
        },
        {
            "bufferView" : 4,
            "componentType" : 5126,
            "count" : 6524,
            "max" : [
                4.972414493560791,
                0.28844231367111206,
                4.971549987792969
            ],
            "min" : [
                -4.971589088439941,
                -0.14054138958454132,
                -4.971549987792969
            ],
            "type" : "VEC3"
        },
        {
            "bufferView" : 5,
            "componentType" : 5126,
            "count" : 6524,
            "max" : [
                0.672349750995636,
                0.9999451041221619,
                0.5854096412658691
            ],
            "min" : [
                -0.6958394050598145,
                0.6200408339500427,
                -0.7676227688789368
            ],
            "type" : "VEC3"
        },
        {
            "bufferView" : 6,
            "componentType" : 5123,
            "count" : 2880,
            "max" : [
                1983
            ],
            "min" : [
                0
            ],
            "type" : "SCALAR"
        },
        {
            "bufferView" : 7,
            "componentType" : 5126,
            "count" : 1984,
            "max" : [
                1.000000238418579,
                1.0,
                1.0000003576278687
            ],
            "min" : [
                -0.9999998211860657,
                -1.0,
                -0.9999991655349731
            ],
            "type" : "VEC3"
        },
        {
            "bufferView" : 8,
            "componentType" : 5126,
            "count" : 1984,
            "max" : [
                0.9904382228851318,
                0.99513840675354,
                0.9904382824897766
            ],
            "min" : [
                -0.9904382228851318,
                -0.99513840675354,
                -0.9904387593269348
            ],
            "type" : "VEC3"
        }
    ],
    "asset" : {
        "generator" : "Khronos Blender glTF 2.0 exporter",
        "version" : "2.0"
    },
    "bufferViews" : [
        {
            "buffer" : 0,
            "byteLength" : 29580,
            "byteOffset" : 0,
            "target" : 34963
        },
        {
            "buffer" : 0,
            "byteLength" : 118320,
            "byteOffset" : 29580,
            "target" : 34962
        },
        {
            "buffer" : 0,
            "byteLength" : 118320,
            "byteOffset" : 147900,
            "target" : 34962
        },
        {
            "buffer" : 0,
            "byteLength" : 19572,
            "byteOffset" : 266220,
            "target" : 34963
        },
        {
            "buffer" : 0,
            "byteLength" : 78288,
            "byteOffset" : 285792,
            "target" : 34962
        },
        {
            "buffer" : 0,
            "byteLength" : 78288,
            "byteOffset" : 364080,
            "target" : 34962
        },
        {
            "buffer" : 0,
            "byteLength" : 5760,
            "byteOffset" : 442368,
            "target" : 34963
        },
        {
            "buffer" : 0,
            "byteLength" : 23808,
            "byteOffset" : 448128,
            "target" : 34962
        },
        {
            "buffer" : 0,
            "byteLength" : 23808,
            "byteOffset" : 471936,
            "target" : 34962
        }
    ],
    "buffers" : [
        {
            "byteLength" : 495744,
            "uri" : "data:application/octet-stream;base64,"
        }
    ],
    "materials" : [
        {
            "name" : "Material.006",
            "pbrMetallicRoughness" : {
                "baseColorFactor" : [
                    0.15027959570705285,
                    0.640000066757203,
                    0.16932746424268874,
                    1.0
                ],
                "metallicFactor" : 0.0
            }
        },
        {
            "name" : "Material.009",
            "pbrMetallicRoughness" : {
                "baseColorFactor" : [
                    0.640000066757203,
                    0.34045002967789806,
                    0.12300374691193916,
                    1.0
                ],
                "metallicFactor" : 0.0
            }
        },
        {
            "name" : "Material.014",
            "pbrMetallicRoughness" : {
                "baseColorFactor" : [
                    0.640000066757203,
                    0.1297409076950089,
                    0.04530305333887119,
                    1.0
                ],
                "metallicFactor" : 0.0
            }
        }
    ],
    "meshes" : [
        {
            "name" : "Cube",
            "primitives" : [
                {
                    "attributes" : {
                        "NORMAL" : 2,
                        "POSITION" : 1
                    },
                    "indices" : 0,
                    "material" : 0
                },
                {
                    "attributes" : {
                        "NORMAL" : 5,
                        "POSITION" : 4
                    },
                    "indices" : 3,
                    "material" : 1
                }
            ]
        },
        {
            "name" : "Sphere",
            "primitives" : [
                {
                    "attributes" : {
                        "NORMAL" : 8,
                        "POSITION" : 7
                    },
                    "indices" : 6,
                    "material" : 2
                }
            ]
        }
    ],
    "nodes" : [
        {
            "mesh" : 0,
            "name" : "Cube",
            "translation" : [
                -0.6167459487915039,
                0.4642220735549927,
                -0.079132080078125
            ]
        },
        {
            "mesh" : 1,
            "name" : "Sphere",
            "scale" : [
                0.47070491313934326,
                0.47070491313934326,
                0.47070491313934326
            ],
            "translation" : [
                0.0781162828207016,
                4.30397367477417,
                -2.45745587348938
            ]
        }
    ],
    "scene" : 0,
    "scenes" : [
        {
            "name" : "Scene",
            "nodes" : [
                1,
                0
            ]
        }
    ]
}
